<mxfile host="65bd71144e">
    <diagram name="DBStore" id="5vakd0-f1liF5I9U3yXF">
        <mxGraphModel dx="1393" dy="771" grid="1" gridSize="10" guides="1" tooltips="1" connect="1" arrows="1" fold="1" page="1" pageScale="1" pageWidth="850" pageHeight="1100" math="0" shadow="0">
            <root>
                <mxCell id="mySKQl5GLhSIpnXFPhBY-0"/>
                <mxCell id="mySKQl5GLhSIpnXFPhBY-1" parent="mySKQl5GLhSIpnXFPhBY-0"/>
                <mxCell id="mySKQl5GLhSIpnXFPhBY-2" style="edgeStyle=none;html=1;" parent="mySKQl5GLhSIpnXFPhBY-1" edge="1">
                    <mxGeometry relative="1" as="geometry">
                        <mxPoint x="190" y="160" as="sourcePoint"/>
                        <mxPoint x="430" y="160" as="targetPoint"/>
                    </mxGeometry>
                </mxCell>
                <mxCell id="0" value="Request Login&lt;br&gt;GET [&lt;span style=&quot;color: rgb(0, 0, 0);&quot;&gt;/auth/{provider}&lt;/span&gt;]" style="edgeLabel;html=1;align=center;verticalAlign=middle;resizable=0;points=[];" vertex="1" connectable="0" parent="mySKQl5GLhSIpnXFPhBY-2">
                    <mxGeometry x="-0.625" y="2" relative="1" as="geometry">
                        <mxPoint x="65" y="-18" as="offset"/>
                    </mxGeometry>
                </mxCell>
                <mxCell id="mySKQl5GLhSIpnXFPhBY-4" value="Oauth Providers" style="swimlane;whiteSpace=wrap;html=1;" parent="mySKQl5GLhSIpnXFPhBY-1" vertex="1">
                    <mxGeometry x="670" y="80" width="180" height="520" as="geometry"/>
                </mxCell>
                <mxCell id="mySKQl5GLhSIpnXFPhBY-5" value="google" style="rounded=0;whiteSpace=wrap;html=1;" parent="mySKQl5GLhSIpnXFPhBY-4" vertex="1">
                    <mxGeometry x="28.5" y="40" width="120" height="60" as="geometry"/>
                </mxCell>
                <mxCell id="mySKQl5GLhSIpnXFPhBY-6" value="apple" style="rounded=0;whiteSpace=wrap;html=1;" parent="mySKQl5GLhSIpnXFPhBY-4" vertex="1">
                    <mxGeometry x="28.5" y="120" width="120" height="60" as="geometry"/>
                </mxCell>
                <mxCell id="mySKQl5GLhSIpnXFPhBY-7" value="microsoft" style="rounded=0;whiteSpace=wrap;html=1;" parent="mySKQl5GLhSIpnXFPhBY-4" vertex="1">
                    <mxGeometry x="28.5" y="200" width="120" height="60" as="geometry"/>
                </mxCell>
                <mxCell id="mySKQl5GLhSIpnXFPhBY-8" value="github" style="rounded=0;whiteSpace=wrap;html=1;" parent="mySKQl5GLhSIpnXFPhBY-4" vertex="1">
                    <mxGeometry x="28.5" y="280" width="120" height="60" as="geometry"/>
                </mxCell>
                <mxCell id="mySKQl5GLhSIpnXFPhBY-26" style="edgeStyle=none;html=1;" parent="mySKQl5GLhSIpnXFPhBY-1" source="mySKQl5GLhSIpnXFPhBY-28" edge="1">
                    <mxGeometry relative="1" as="geometry">
                        <mxPoint x="190" y="160" as="targetPoint"/>
                    </mxGeometry>
                </mxCell>
                <mxCell id="24" value="" style="edgeStyle=none;html=1;dashed=1;dashPattern=1 4;" edge="1" parent="mySKQl5GLhSIpnXFPhBY-1" source="mySKQl5GLhSIpnXFPhBY-28" target="23">
                    <mxGeometry relative="1" as="geometry"/>
                </mxCell>
                <mxCell id="mySKQl5GLhSIpnXFPhBY-28" value="Login" style="ellipse;whiteSpace=wrap;html=1;aspect=fixed;" parent="mySKQl5GLhSIpnXFPhBY-1" vertex="1">
                    <mxGeometry x="60" y="120" width="80" height="80" as="geometry"/>
                </mxCell>
                <mxCell id="4" style="edgeStyle=none;html=1;" edge="1" parent="mySKQl5GLhSIpnXFPhBY-1">
                    <mxGeometry relative="1" as="geometry">
                        <mxPoint x="430" y="200" as="sourcePoint"/>
                        <mxPoint x="670" y="200" as="targetPoint"/>
                    </mxGeometry>
                </mxCell>
                <mxCell id="7" value="Send Login Request" style="edgeLabel;html=1;align=center;verticalAlign=middle;resizable=0;points=[];" vertex="1" connectable="0" parent="4">
                    <mxGeometry x="-0.7661" y="-4" relative="1" as="geometry">
                        <mxPoint x="102" y="-14" as="offset"/>
                    </mxGeometry>
                </mxCell>
                <mxCell id="mySKQl5GLhSIpnXFPhBY-13" value="" style="endArrow=none;dashed=1;html=1;" parent="mySKQl5GLhSIpnXFPhBY-1" target="mySKQl5GLhSIpnXFPhBY-14" edge="1">
                    <mxGeometry width="50" height="50" relative="1" as="geometry">
                        <mxPoint x="430" y="920" as="sourcePoint"/>
                        <mxPoint x="407.89473684210526" y="84.32432432432432" as="targetPoint"/>
                    </mxGeometry>
                </mxCell>
                <mxCell id="mySKQl5GLhSIpnXFPhBY-14" value="VeryExpress (backend)&lt;br&gt;Server" style="text;html=1;strokeColor=none;fillColor=none;align=center;verticalAlign=middle;whiteSpace=wrap;rounded=0;" parent="mySKQl5GLhSIpnXFPhBY-1" vertex="1">
                    <mxGeometry x="392.11" y="70" width="75.78947368421052" height="42.972972972972975" as="geometry"/>
                </mxCell>
                <mxCell id="mySKQl5GLhSIpnXFPhBY-17" value="return provider&#39;s login page" style="edgeStyle=none;html=1;" parent="mySKQl5GLhSIpnXFPhBY-1" edge="1">
                    <mxGeometry x="-0.5416" y="-11" relative="1" as="geometry">
                        <mxPoint x="670" y="281.2143243243243" as="sourcePoint"/>
                        <mxPoint x="190" y="280" as="targetPoint"/>
                        <mxPoint as="offset"/>
                    </mxGeometry>
                </mxCell>
                <mxCell id="9" value="Authorise" style="edgeStyle=none;html=1;" edge="1" parent="mySKQl5GLhSIpnXFPhBY-1">
                    <mxGeometry x="-0.5428" y="11" relative="1" as="geometry">
                        <mxPoint x="188.67000000000002" y="361.2143243243243" as="sourcePoint"/>
                        <mxPoint x="670.0032519531251" y="360" as="targetPoint"/>
                        <mxPoint as="offset"/>
                    </mxGeometry>
                </mxCell>
                <mxCell id="10" value="redirect to app&#39;s callback" style="edgeStyle=none;html=1;exitX=-0.006;exitY=0.367;exitDx=0;exitDy=0;exitPerimeter=0;" edge="1" parent="mySKQl5GLhSIpnXFPhBY-1">
                    <mxGeometry x="-0.5" y="-10" relative="1" as="geometry">
                        <mxPoint x="670" y="400" as="sourcePoint"/>
                        <mxPoint x="190" y="400" as="targetPoint"/>
                        <mxPoint as="offset"/>
                    </mxGeometry>
                </mxCell>
                <mxCell id="mySKQl5GLhSIpnXFPhBY-10" value="" style="endArrow=none;dashed=1;html=1;" parent="mySKQl5GLhSIpnXFPhBY-1" target="mySKQl5GLhSIpnXFPhBY-11" edge="1">
                    <mxGeometry width="50" height="50" relative="1" as="geometry">
                        <mxPoint x="190" y="920" as="sourcePoint"/>
                        <mxPoint x="190" y="84.32432432432432" as="targetPoint"/>
                    </mxGeometry>
                </mxCell>
                <mxCell id="mySKQl5GLhSIpnXFPhBY-11" value="Client Side" style="text;html=1;strokeColor=none;fillColor=none;align=center;verticalAlign=middle;whiteSpace=wrap;rounded=0;" parent="mySKQl5GLhSIpnXFPhBY-1" vertex="1">
                    <mxGeometry x="130" y="70" width="120" height="42.972972972972975" as="geometry"/>
                </mxCell>
                <mxCell id="mySKQl5GLhSIpnXFPhBY-15" value="gererate app auth code, save to db by user&lt;br&gt;&lt;span style=&quot;color: rgb(0, 0, 0);&quot;&gt;Response [ /auth/{provider}/callback ]&lt;/span&gt;" style="edgeStyle=none;html=1;exitX=-0.006;exitY=0.367;exitDx=0;exitDy=0;exitPerimeter=0;" parent="mySKQl5GLhSIpnXFPhBY-1" edge="1">
                    <mxGeometry x="-0.003" y="-20" relative="1" as="geometry">
                        <mxPoint x="429.28" y="600" as="sourcePoint"/>
                        <mxPoint x="190" y="600" as="targetPoint"/>
                        <mxPoint as="offset"/>
                    </mxGeometry>
                </mxCell>
                <mxCell id="11" style="edgeStyle=none;html=1;" edge="1" parent="mySKQl5GLhSIpnXFPhBY-1">
                    <mxGeometry relative="1" as="geometry">
                        <mxPoint x="190" y="480" as="sourcePoint"/>
                        <mxPoint x="430" y="480" as="targetPoint"/>
                    </mxGeometry>
                </mxCell>
                <mxCell id="13" value="Redirected&lt;br&gt;GET [/auth/{provider}/callback?code=***]" style="edgeLabel;html=1;align=center;verticalAlign=middle;resizable=0;points=[];" vertex="1" connectable="0" parent="11">
                    <mxGeometry x="-0.625" y="2" relative="1" as="geometry">
                        <mxPoint x="75" y="-18" as="offset"/>
                    </mxGeometry>
                </mxCell>
                <mxCell id="14" style="edgeStyle=none;html=1;" edge="1" parent="mySKQl5GLhSIpnXFPhBY-1">
                    <mxGeometry relative="1" as="geometry">
                        <mxPoint x="430" y="520" as="sourcePoint"/>
                        <mxPoint x="670" y="520" as="targetPoint"/>
                    </mxGeometry>
                </mxCell>
                <mxCell id="15" value="request user data by &quot;code&quot;" style="edgeLabel;html=1;align=center;verticalAlign=middle;resizable=0;points=[];" vertex="1" connectable="0" parent="14">
                    <mxGeometry x="-0.625" y="2" relative="1" as="geometry">
                        <mxPoint x="75" y="-8" as="offset"/>
                    </mxGeometry>
                </mxCell>
                <mxCell id="16" style="edgeStyle=none;html=1;" edge="1" parent="mySKQl5GLhSIpnXFPhBY-1">
                    <mxGeometry relative="1" as="geometry">
                        <mxPoint x="670" y="560" as="sourcePoint"/>
                        <mxPoint x="430" y="560" as="targetPoint"/>
                    </mxGeometry>
                </mxCell>
                <mxCell id="17" value="return user data" style="edgeLabel;html=1;align=center;verticalAlign=middle;resizable=0;points=[];" vertex="1" connectable="0" parent="16">
                    <mxGeometry x="-0.625" y="2" relative="1" as="geometry">
                        <mxPoint x="-75" y="-12" as="offset"/>
                    </mxGeometry>
                </mxCell>
                <mxCell id="18" value="retrive tokens&lt;br&gt;GET&amp;nbsp;&lt;span style=&quot;color: rgb(0, 0, 0);&quot;&gt;[ /auth/{provider}/token]&lt;/span&gt;" style="edgeStyle=none;html=1;exitX=-0.006;exitY=0.367;exitDx=0;exitDy=0;exitPerimeter=0;" edge="1" parent="mySKQl5GLhSIpnXFPhBY-1">
                    <mxGeometry x="-0.003" y="20" relative="1" as="geometry">
                        <mxPoint x="189.99999999999997" y="680" as="sourcePoint"/>
                        <mxPoint x="430.72" y="680" as="targetPoint"/>
                        <mxPoint as="offset"/>
                    </mxGeometry>
                </mxCell>
                <mxCell id="21" style="edgeStyle=none;html=1;entryX=1;entryY=0.25;entryDx=0;entryDy=0;" edge="1" parent="mySKQl5GLhSIpnXFPhBY-1" target="23">
                    <mxGeometry relative="1" as="geometry">
                        <mxPoint x="130" y="296" as="targetPoint"/>
                        <mxPoint x="190" y="280" as="sourcePoint"/>
                    </mxGeometry>
                </mxCell>
                <mxCell id="22" style="edgeStyle=none;html=1;exitX=1;exitY=0.75;exitDx=0;exitDy=0;" edge="1" parent="mySKQl5GLhSIpnXFPhBY-1" source="23">
                    <mxGeometry relative="1" as="geometry">
                        <mxPoint x="190" y="360" as="targetPoint"/>
                        <mxPoint x="160" y="350" as="sourcePoint"/>
                    </mxGeometry>
                </mxCell>
                <mxCell id="28" value="" style="edgeStyle=none;html=1;dashed=1;dashPattern=1 4;exitX=0.5;exitY=1;exitDx=0;exitDy=0;" edge="1" parent="mySKQl5GLhSIpnXFPhBY-1" source="23" target="25">
                    <mxGeometry relative="1" as="geometry">
                        <mxPoint x="100" y="365" as="sourcePoint"/>
                    </mxGeometry>
                </mxCell>
                <mxCell id="23" value="&lt;span style=&quot;color: rgb(0, 0, 0); text-wrap: nowrap;&quot;&gt;Login &lt;br&gt;providers account&lt;/span&gt;" style="rounded=0;whiteSpace=wrap;html=1;" vertex="1" parent="mySKQl5GLhSIpnXFPhBY-1">
                    <mxGeometry x="40" y="290" width="120" height="60" as="geometry"/>
                </mxCell>
                <mxCell id="26" style="edgeStyle=none;html=1;entryX=1;entryY=0.25;entryDx=0;entryDy=0;" edge="1" parent="mySKQl5GLhSIpnXFPhBY-1" target="25">
                    <mxGeometry relative="1" as="geometry">
                        <mxPoint x="190" y="395" as="targetPoint"/>
                        <mxPoint x="190" y="400" as="sourcePoint"/>
                    </mxGeometry>
                </mxCell>
                <mxCell id="27" style="edgeStyle=none;html=1;exitX=1;exitY=0.75;exitDx=0;exitDy=0;" edge="1" parent="mySKQl5GLhSIpnXFPhBY-1" source="25">
                    <mxGeometry relative="1" as="geometry">
                        <mxPoint x="190" y="480" as="targetPoint"/>
                    </mxGeometry>
                </mxCell>
                <mxCell id="25" value="&lt;span style=&quot;color: rgb(0, 0, 0); text-wrap: nowrap;&quot;&gt;Redirected&lt;/span&gt;" style="rounded=0;whiteSpace=wrap;html=1;" vertex="1" parent="mySKQl5GLhSIpnXFPhBY-1">
                    <mxGeometry x="40" y="410" width="120" height="60" as="geometry"/>
                </mxCell>
                <mxCell id="31" style="edgeStyle=none;html=1;entryX=1;entryY=0.25;entryDx=0;entryDy=0;" edge="1" parent="mySKQl5GLhSIpnXFPhBY-1" target="30">
                    <mxGeometry relative="1" as="geometry">
                        <mxPoint x="190" y="600" as="targetPoint"/>
                        <mxPoint x="190" y="600" as="sourcePoint"/>
                    </mxGeometry>
                </mxCell>
                <mxCell id="32" style="edgeStyle=none;html=1;" edge="1" parent="mySKQl5GLhSIpnXFPhBY-1" source="30">
                    <mxGeometry relative="1" as="geometry">
                        <mxPoint x="190" y="680" as="targetPoint"/>
                    </mxGeometry>
                </mxCell>
                <mxCell id="30" value="&lt;span style=&quot;color: rgb(0, 0, 0); text-wrap: nowrap;&quot;&gt;JS script &lt;br&gt;retrive code&lt;/span&gt;" style="rounded=0;whiteSpace=wrap;html=1;" vertex="1" parent="mySKQl5GLhSIpnXFPhBY-1">
                    <mxGeometry x="40" y="610" width="120" height="60" as="geometry"/>
                </mxCell>
                <mxCell id="34" value="generate tokens, remove app auth code&lt;br&gt;&lt;span style=&quot;color: rgb(0, 0, 0);&quot;&gt;Response&amp;nbsp;&lt;/span&gt;&lt;span style=&quot;scrollbar-color: light-dark(#e2e2e2, #4b4b4b)&lt;br/&gt;&#x9;&#x9;&#x9;&#x9;&#x9;light-dark(#fbfbfb, var(--dark-panel-color)); color: rgb(0, 0, 0);&quot;&gt;[ /auth/{provider}/token]&lt;/span&gt;" style="edgeStyle=none;html=1;" edge="1" parent="mySKQl5GLhSIpnXFPhBY-1">
                    <mxGeometry y="-20" relative="1" as="geometry">
                        <mxPoint x="430" y="720" as="sourcePoint"/>
                        <mxPoint x="190.00000000000003" y="720" as="targetPoint"/>
                        <mxPoint as="offset"/>
                    </mxGeometry>
                </mxCell>
                <mxCell id="36" style="edgeStyle=none;html=1;entryX=1;entryY=0.25;entryDx=0;entryDy=0;" edge="1" parent="mySKQl5GLhSIpnXFPhBY-1" target="35">
                    <mxGeometry relative="1" as="geometry">
                        <mxPoint x="190" y="720" as="targetPoint"/>
                        <mxPoint x="190" y="720" as="sourcePoint"/>
                    </mxGeometry>
                </mxCell>
                <mxCell id="35" value="&lt;span style=&quot;color: rgb(0, 0, 0); text-wrap: nowrap;&quot;&gt;JS script &lt;br&gt;store tokens&lt;/span&gt;" style="rounded=0;whiteSpace=wrap;html=1;" vertex="1" parent="mySKQl5GLhSIpnXFPhBY-1">
                    <mxGeometry x="40" y="730" width="120" height="60" as="geometry"/>
                </mxCell>
            </root>
        </mxGraphModel>
    </diagram>
    <diagram id="0orzA157L1LUyU_UZBgA" name="token api">
        <mxGraphModel dx="772" dy="414" grid="1" gridSize="10" guides="1" tooltips="1" connect="1" arrows="1" fold="1" page="1" pageScale="1" pageWidth="850" pageHeight="1100" math="0" shadow="0">
            <root>
                <mxCell id="0"/>
                <mxCell id="1" parent="0"/>
                <mxCell id="Z2bCPHqRv4DeRaO5CPOs-7" style="edgeStyle=none;html=1;" parent="1" source="EWqdCIH5SgN7KmLZye1h-1" edge="1">
                    <mxGeometry relative="1" as="geometry">
                        <mxPoint x="260" y="80" as="targetPoint"/>
                    </mxGeometry>
                </mxCell>
                <mxCell id="EWqdCIH5SgN7KmLZye1h-1" value="" style="ellipse;whiteSpace=wrap;html=1;aspect=fixed;" parent="1" vertex="1">
                    <mxGeometry x="40" y="40" width="80" height="80" as="geometry"/>
                </mxCell>
                <mxCell id="Z2bCPHqRv4DeRaO5CPOs-1" value="" style="group" parent="1" vertex="1" connectable="0">
                    <mxGeometry x="200" width="120" height="530" as="geometry"/>
                </mxCell>
                <mxCell id="Z2bCPHqRv4DeRaO5CPOs-2" value="" style="endArrow=none;dashed=1;html=1;" parent="Z2bCPHqRv4DeRaO5CPOs-1" target="Z2bCPHqRv4DeRaO5CPOs-3" edge="1">
                    <mxGeometry width="50" height="50" relative="1" as="geometry">
                        <mxPoint x="60" y="530" as="sourcePoint"/>
                        <mxPoint x="60" y="14.324324324324325" as="targetPoint"/>
                    </mxGeometry>
                </mxCell>
                <mxCell id="Z2bCPHqRv4DeRaO5CPOs-22" value="store token &amp;amp; id" style="edgeLabel;html=1;align=center;verticalAlign=middle;resizable=0;points=[];" parent="Z2bCPHqRv4DeRaO5CPOs-2" vertex="1" connectable="0">
                    <mxGeometry x="0.0385" y="-1" relative="1" as="geometry">
                        <mxPoint x="-1" y="-57" as="offset"/>
                    </mxGeometry>
                </mxCell>
                <mxCell id="Z2bCPHqRv4DeRaO5CPOs-3" value="Client Side" style="text;html=1;strokeColor=none;fillColor=none;align=center;verticalAlign=middle;whiteSpace=wrap;rounded=0;" parent="Z2bCPHqRv4DeRaO5CPOs-1" vertex="1">
                    <mxGeometry width="120" height="42.972972972972975" as="geometry"/>
                </mxCell>
                <mxCell id="Z2bCPHqRv4DeRaO5CPOs-4" value="" style="group" parent="1" vertex="1" connectable="0">
                    <mxGeometry x="440" width="120" height="530" as="geometry"/>
                </mxCell>
                <mxCell id="Z2bCPHqRv4DeRaO5CPOs-5" value="" style="endArrow=none;dashed=1;html=1;" parent="Z2bCPHqRv4DeRaO5CPOs-4" target="Z2bCPHqRv4DeRaO5CPOs-6" edge="1">
                    <mxGeometry width="50" height="50" relative="1" as="geometry">
                        <mxPoint x="60" y="530" as="sourcePoint"/>
                        <mxPoint x="37.89473684210526" y="14.324324324324325" as="targetPoint"/>
                    </mxGeometry>
                </mxCell>
                <mxCell id="Z2bCPHqRv4DeRaO5CPOs-14" value="Create Token" style="edgeLabel;html=1;align=center;verticalAlign=middle;resizable=0;points=[];" parent="Z2bCPHqRv4DeRaO5CPOs-5" vertex="1" connectable="0">
                    <mxGeometry x="0.733" y="3" relative="1" as="geometry">
                        <mxPoint x="3" y="12" as="offset"/>
                    </mxGeometry>
                </mxCell>
                <mxCell id="Z2bCPHqRv4DeRaO5CPOs-6" value="Server" style="text;html=1;strokeColor=none;fillColor=none;align=center;verticalAlign=middle;whiteSpace=wrap;rounded=0;" parent="Z2bCPHqRv4DeRaO5CPOs-4" vertex="1">
                    <mxGeometry x="22.11" width="75.78947368421052" height="42.972972972972975" as="geometry"/>
                </mxCell>
                <mxCell id="Z2bCPHqRv4DeRaO5CPOs-9" style="edgeStyle=none;html=1;" parent="1" edge="1">
                    <mxGeometry relative="1" as="geometry">
                        <mxPoint x="500" y="80" as="targetPoint"/>
                        <mxPoint x="260" y="80" as="sourcePoint"/>
                    </mxGeometry>
                </mxCell>
                <mxCell id="Z2bCPHqRv4DeRaO5CPOs-13" value="Req" style="edgeLabel;html=1;align=center;verticalAlign=middle;resizable=0;points=[];" parent="Z2bCPHqRv4DeRaO5CPOs-9" vertex="1" connectable="0">
                    <mxGeometry x="-0.1275" relative="1" as="geometry">
                        <mxPoint x="15" as="offset"/>
                    </mxGeometry>
                </mxCell>
                <mxCell id="Z2bCPHqRv4DeRaO5CPOs-16" style="edgeStyle=none;html=1;" parent="1" edge="1">
                    <mxGeometry relative="1" as="geometry">
                        <mxPoint x="260" y="160" as="targetPoint"/>
                        <mxPoint x="500" y="160" as="sourcePoint"/>
                    </mxGeometry>
                </mxCell>
                <mxCell id="Z2bCPHqRv4DeRaO5CPOs-17" value="Redirect with token &lt;br&gt;on query param" style="edgeLabel;html=1;align=center;verticalAlign=middle;resizable=0;points=[];" parent="Z2bCPHqRv4DeRaO5CPOs-16" vertex="1" connectable="0">
                    <mxGeometry x="-0.1275" relative="1" as="geometry">
                        <mxPoint x="-15" as="offset"/>
                    </mxGeometry>
                </mxCell>
            </root>
        </mxGraphModel>
    </diagram>
    <diagram id="nT3DKkM1U51uSFMnaEO-" name="Page-3">
        <mxGraphModel dx="517" dy="414" grid="1" gridSize="10" guides="1" tooltips="1" connect="1" arrows="1" fold="1" page="1" pageScale="1" pageWidth="827" pageHeight="1169" math="0" shadow="0">
            <root>
                <mxCell id="0"/>
                <mxCell id="1" parent="0"/>
                <mxCell id="_4lO2P2aUbs4R-eT7nXR-6" value="Main" style="shape=table;startSize=30;container=1;collapsible=0;childLayout=tableLayout;fixedRows=1;rowLines=0;fontStyle=1;" parent="1" vertex="1">
                    <mxGeometry x="80" y="240" width="180" height="210" as="geometry"/>
                </mxCell>
                <mxCell id="_4lO2P2aUbs4R-eT7nXR-7" value="" style="shape=tableRow;horizontal=0;startSize=0;swimlaneHead=0;swimlaneBody=0;top=0;left=0;bottom=0;right=0;collapsible=0;dropTarget=0;fillColor=none;points=[[0,0.5],[1,0.5]];portConstraint=eastwest;" parent="_4lO2P2aUbs4R-eT7nXR-6" vertex="1">
                    <mxGeometry y="30" width="180" height="30" as="geometry"/>
                </mxCell>
                <mxCell id="_4lO2P2aUbs4R-eT7nXR-8" value="Y" style="shape=partialRectangle;html=1;whiteSpace=wrap;connectable=0;fillColor=none;top=0;left=0;bottom=0;right=0;overflow=hidden;pointerEvents=1;" parent="_4lO2P2aUbs4R-eT7nXR-7" vertex="1">
                    <mxGeometry width="40" height="30" as="geometry">
                        <mxRectangle width="40" height="30" as="alternateBounds"/>
                    </mxGeometry>
                </mxCell>
                <mxCell id="_4lO2P2aUbs4R-eT7nXR-9" value="_id" style="shape=partialRectangle;html=1;whiteSpace=wrap;connectable=0;fillColor=none;top=0;left=0;bottom=0;right=0;align=left;spacingLeft=6;overflow=hidden;" parent="_4lO2P2aUbs4R-eT7nXR-7" vertex="1">
                    <mxGeometry x="40" width="140" height="30" as="geometry">
                        <mxRectangle width="140" height="30" as="alternateBounds"/>
                    </mxGeometry>
                </mxCell>
                <mxCell id="_4lO2P2aUbs4R-eT7nXR-10" value="" style="shape=tableRow;horizontal=0;startSize=0;swimlaneHead=0;swimlaneBody=0;top=0;left=0;bottom=0;right=0;collapsible=0;dropTarget=0;fillColor=none;points=[[0,0.5],[1,0.5]];portConstraint=eastwest;" parent="_4lO2P2aUbs4R-eT7nXR-6" vertex="1">
                    <mxGeometry y="60" width="180" height="30" as="geometry"/>
                </mxCell>
                <mxCell id="_4lO2P2aUbs4R-eT7nXR-11" value="Y" style="shape=partialRectangle;html=1;whiteSpace=wrap;connectable=0;fillColor=none;top=0;left=0;bottom=0;right=0;overflow=hidden;" parent="_4lO2P2aUbs4R-eT7nXR-10" vertex="1">
                    <mxGeometry width="40" height="30" as="geometry">
                        <mxRectangle width="40" height="30" as="alternateBounds"/>
                    </mxGeometry>
                </mxCell>
                <mxCell id="_4lO2P2aUbs4R-eT7nXR-12" value="uid (AI)" style="shape=partialRectangle;html=1;whiteSpace=wrap;connectable=0;fillColor=none;top=0;left=0;bottom=0;right=0;align=left;spacingLeft=6;overflow=hidden;" parent="_4lO2P2aUbs4R-eT7nXR-10" vertex="1">
                    <mxGeometry x="40" width="140" height="30" as="geometry">
                        <mxRectangle width="140" height="30" as="alternateBounds"/>
                    </mxGeometry>
                </mxCell>
                <mxCell id="_4lO2P2aUbs4R-eT7nXR-13" value="" style="shape=tableRow;horizontal=0;startSize=0;swimlaneHead=0;swimlaneBody=0;top=0;left=0;bottom=0;right=0;collapsible=0;dropTarget=0;fillColor=none;points=[[0,0.5],[1,0.5]];portConstraint=eastwest;" parent="_4lO2P2aUbs4R-eT7nXR-6" vertex="1">
                    <mxGeometry y="90" width="180" height="30" as="geometry"/>
                </mxCell>
                <mxCell id="_4lO2P2aUbs4R-eT7nXR-14" value="Y" style="shape=partialRectangle;html=1;whiteSpace=wrap;connectable=0;fillColor=none;top=0;left=0;bottom=0;right=0;overflow=hidden;" parent="_4lO2P2aUbs4R-eT7nXR-13" vertex="1">
                    <mxGeometry width="40" height="30" as="geometry">
                        <mxRectangle width="40" height="30" as="alternateBounds"/>
                    </mxGeometry>
                </mxCell>
                <mxCell id="_4lO2P2aUbs4R-eT7nXR-15" value="username" style="shape=partialRectangle;html=1;whiteSpace=wrap;connectable=0;fillColor=none;top=0;left=0;bottom=0;right=0;align=left;spacingLeft=6;overflow=hidden;" parent="_4lO2P2aUbs4R-eT7nXR-13" vertex="1">
                    <mxGeometry x="40" width="140" height="30" as="geometry">
                        <mxRectangle width="140" height="30" as="alternateBounds"/>
                    </mxGeometry>
                </mxCell>
                <mxCell id="_4lO2P2aUbs4R-eT7nXR-16" style="shape=tableRow;horizontal=0;startSize=0;swimlaneHead=0;swimlaneBody=0;top=0;left=0;bottom=0;right=0;collapsible=0;dropTarget=0;fillColor=none;points=[[0,0.5],[1,0.5]];portConstraint=eastwest;" parent="_4lO2P2aUbs4R-eT7nXR-6" vertex="1">
                    <mxGeometry y="120" width="180" height="30" as="geometry"/>
                </mxCell>
                <mxCell id="_4lO2P2aUbs4R-eT7nXR-17" value="N" style="shape=partialRectangle;html=1;whiteSpace=wrap;connectable=0;fillColor=none;top=0;left=0;bottom=0;right=0;overflow=hidden;" parent="_4lO2P2aUbs4R-eT7nXR-16" vertex="1">
                    <mxGeometry width="40" height="30" as="geometry">
                        <mxRectangle width="40" height="30" as="alternateBounds"/>
                    </mxGeometry>
                </mxCell>
                <mxCell id="_4lO2P2aUbs4R-eT7nXR-18" value="email" style="shape=partialRectangle;html=1;whiteSpace=wrap;connectable=0;fillColor=none;top=0;left=0;bottom=0;right=0;align=left;spacingLeft=6;overflow=hidden;" parent="_4lO2P2aUbs4R-eT7nXR-16" vertex="1">
                    <mxGeometry x="40" width="140" height="30" as="geometry">
                        <mxRectangle width="140" height="30" as="alternateBounds"/>
                    </mxGeometry>
                </mxCell>
                <mxCell id="_4lO2P2aUbs4R-eT7nXR-19" style="shape=tableRow;horizontal=0;startSize=0;swimlaneHead=0;swimlaneBody=0;top=0;left=0;bottom=0;right=0;collapsible=0;dropTarget=0;fillColor=none;points=[[0,0.5],[1,0.5]];portConstraint=eastwest;" parent="_4lO2P2aUbs4R-eT7nXR-6" vertex="1">
                    <mxGeometry y="150" width="180" height="30" as="geometry"/>
                </mxCell>
                <mxCell id="_4lO2P2aUbs4R-eT7nXR-20" value="N" style="shape=partialRectangle;html=1;whiteSpace=wrap;connectable=0;fillColor=none;top=0;left=0;bottom=0;right=0;overflow=hidden;" parent="_4lO2P2aUbs4R-eT7nXR-19" vertex="1">
                    <mxGeometry width="40" height="30" as="geometry">
                        <mxRectangle width="40" height="30" as="alternateBounds"/>
                    </mxGeometry>
                </mxCell>
                <mxCell id="_4lO2P2aUbs4R-eT7nXR-21" value="totp" style="shape=partialRectangle;html=1;whiteSpace=wrap;connectable=0;fillColor=none;top=0;left=0;bottom=0;right=0;align=left;spacingLeft=6;overflow=hidden;" parent="_4lO2P2aUbs4R-eT7nXR-19" vertex="1">
                    <mxGeometry x="40" width="140" height="30" as="geometry">
                        <mxRectangle width="140" height="30" as="alternateBounds"/>
                    </mxGeometry>
                </mxCell>
                <mxCell id="_4lO2P2aUbs4R-eT7nXR-22" style="shape=tableRow;horizontal=0;startSize=0;swimlaneHead=0;swimlaneBody=0;top=0;left=0;bottom=0;right=0;collapsible=0;dropTarget=0;fillColor=none;points=[[0,0.5],[1,0.5]];portConstraint=eastwest;" parent="_4lO2P2aUbs4R-eT7nXR-6" vertex="1">
                    <mxGeometry y="180" width="180" height="30" as="geometry"/>
                </mxCell>
                <mxCell id="_4lO2P2aUbs4R-eT7nXR-23" value="N" style="shape=partialRectangle;html=1;whiteSpace=wrap;connectable=0;fillColor=none;top=0;left=0;bottom=0;right=0;overflow=hidden;" parent="_4lO2P2aUbs4R-eT7nXR-22" vertex="1">
                    <mxGeometry width="40" height="30" as="geometry">
                        <mxRectangle width="40" height="30" as="alternateBounds"/>
                    </mxGeometry>
                </mxCell>
                <mxCell id="_4lO2P2aUbs4R-eT7nXR-24" value="OAuthProfiles" style="shape=partialRectangle;html=1;whiteSpace=wrap;connectable=0;fillColor=none;top=0;left=0;bottom=0;right=0;align=left;spacingLeft=6;overflow=hidden;" parent="_4lO2P2aUbs4R-eT7nXR-22" vertex="1">
                    <mxGeometry x="40" width="140" height="30" as="geometry">
                        <mxRectangle width="140" height="30" as="alternateBounds"/>
                    </mxGeometry>
                </mxCell>
                <mxCell id="_4lO2P2aUbs4R-eT7nXR-25" value="OAuthProfiles item" style="shape=table;startSize=30;container=1;collapsible=0;childLayout=tableLayout;fixedRows=1;rowLines=0;fontStyle=1;" parent="1" vertex="1">
                    <mxGeometry x="324" y="420" width="180" height="120" as="geometry"/>
                </mxCell>
                <mxCell id="_4lO2P2aUbs4R-eT7nXR-26" value="" style="shape=tableRow;horizontal=0;startSize=0;swimlaneHead=0;swimlaneBody=0;top=0;left=0;bottom=0;right=0;collapsible=0;dropTarget=0;fillColor=none;points=[[0,0.5],[1,0.5]];portConstraint=eastwest;" parent="_4lO2P2aUbs4R-eT7nXR-25" vertex="1">
                    <mxGeometry y="30" width="180" height="30" as="geometry"/>
                </mxCell>
                <mxCell id="_4lO2P2aUbs4R-eT7nXR-27" value="Y" style="shape=partialRectangle;html=1;whiteSpace=wrap;connectable=0;fillColor=none;top=0;left=0;bottom=0;right=0;overflow=hidden;pointerEvents=1;" parent="_4lO2P2aUbs4R-eT7nXR-26" vertex="1">
                    <mxGeometry width="40" height="30" as="geometry">
                        <mxRectangle width="40" height="30" as="alternateBounds"/>
                    </mxGeometry>
                </mxCell>
                <mxCell id="_4lO2P2aUbs4R-eT7nXR-28" value="authId" style="shape=partialRectangle;html=1;whiteSpace=wrap;connectable=0;fillColor=none;top=0;left=0;bottom=0;right=0;align=left;spacingLeft=6;overflow=hidden;" parent="_4lO2P2aUbs4R-eT7nXR-26" vertex="1">
                    <mxGeometry x="40" width="140" height="30" as="geometry">
                        <mxRectangle width="140" height="30" as="alternateBounds"/>
                    </mxGeometry>
                </mxCell>
                <mxCell id="_4lO2P2aUbs4R-eT7nXR-32" value="" style="shape=tableRow;horizontal=0;startSize=0;swimlaneHead=0;swimlaneBody=0;top=0;left=0;bottom=0;right=0;collapsible=0;dropTarget=0;fillColor=none;points=[[0,0.5],[1,0.5]];portConstraint=eastwest;" parent="_4lO2P2aUbs4R-eT7nXR-25" vertex="1">
                    <mxGeometry y="60" width="180" height="30" as="geometry"/>
                </mxCell>
                <mxCell id="_4lO2P2aUbs4R-eT7nXR-33" value="Y" style="shape=partialRectangle;html=1;whiteSpace=wrap;connectable=0;fillColor=none;top=0;left=0;bottom=0;right=0;overflow=hidden;" parent="_4lO2P2aUbs4R-eT7nXR-32" vertex="1">
                    <mxGeometry width="40" height="30" as="geometry">
                        <mxRectangle width="40" height="30" as="alternateBounds"/>
                    </mxGeometry>
                </mxCell>
                <mxCell id="_4lO2P2aUbs4R-eT7nXR-34" value="username" style="shape=partialRectangle;html=1;whiteSpace=wrap;connectable=0;fillColor=none;top=0;left=0;bottom=0;right=0;align=left;spacingLeft=6;overflow=hidden;" parent="_4lO2P2aUbs4R-eT7nXR-32" vertex="1">
                    <mxGeometry x="40" width="140" height="30" as="geometry">
                        <mxRectangle width="140" height="30" as="alternateBounds"/>
                    </mxGeometry>
                </mxCell>
                <mxCell id="_4lO2P2aUbs4R-eT7nXR-35" style="shape=tableRow;horizontal=0;startSize=0;swimlaneHead=0;swimlaneBody=0;top=0;left=0;bottom=0;right=0;collapsible=0;dropTarget=0;fillColor=none;points=[[0,0.5],[1,0.5]];portConstraint=eastwest;" parent="_4lO2P2aUbs4R-eT7nXR-25" vertex="1">
                    <mxGeometry y="90" width="180" height="30" as="geometry"/>
                </mxCell>
                <mxCell id="_4lO2P2aUbs4R-eT7nXR-36" value="N" style="shape=partialRectangle;html=1;whiteSpace=wrap;connectable=0;fillColor=none;top=0;left=0;bottom=0;right=0;overflow=hidden;" parent="_4lO2P2aUbs4R-eT7nXR-35" vertex="1">
                    <mxGeometry width="40" height="30" as="geometry">
                        <mxRectangle width="40" height="30" as="alternateBounds"/>
                    </mxGeometry>
                </mxCell>
                <mxCell id="_4lO2P2aUbs4R-eT7nXR-37" value="email" style="shape=partialRectangle;html=1;whiteSpace=wrap;connectable=0;fillColor=none;top=0;left=0;bottom=0;right=0;align=left;spacingLeft=6;overflow=hidden;" parent="_4lO2P2aUbs4R-eT7nXR-35" vertex="1">
                    <mxGeometry x="40" width="140" height="30" as="geometry">
                        <mxRectangle width="140" height="30" as="alternateBounds"/>
                    </mxGeometry>
                </mxCell>
                <mxCell id="_4lO2P2aUbs4R-eT7nXR-44" style="edgeStyle=none;html=1;entryX=0.01;entryY=0.141;entryDx=0;entryDy=0;entryPerimeter=0;" parent="1" source="_4lO2P2aUbs4R-eT7nXR-22" target="_4lO2P2aUbs4R-eT7nXR-25" edge="1">
                    <mxGeometry relative="1" as="geometry">
                        <mxPoint x="300" y="435" as="targetPoint"/>
                    </mxGeometry>
                </mxCell>
                <mxCell id="_4lO2P2aUbs4R-eT7nXR-45" value="&lt;h1&gt;Finding user&lt;/h1&gt;&lt;p&gt;system identify by _id, oauth.authId,&amp;nbsp;&lt;br&gt;human identify by uid,&lt;br&gt;could email too, but it is optional.&lt;br&gt;&lt;br&gt;by OAuth profiles,&lt;br&gt;it can ONLY use authId, &lt;br&gt;to avoid different oauth mail on same user.&lt;/p&gt;" style="text;html=1;strokeColor=none;fillColor=none;spacing=5;spacingTop=-20;whiteSpace=wrap;overflow=hidden;rounded=0;" parent="1" vertex="1">
                    <mxGeometry x="80" y="600" width="250" height="170" as="geometry"/>
                </mxCell>
                <mxCell id="_4lO2P2aUbs4R-eT7nXR-46" value="&lt;h1&gt;Register New User&lt;/h1&gt;&lt;p&gt;check duplicated by main.email &lt;br&gt;and oauth.authId, oauth.email.&lt;br&gt;&lt;br&gt;one email should only have one account, it canyt be on two different user account.&lt;br&gt;&lt;br&gt;one account can have multiple email.&lt;/p&gt;&lt;p&gt;prompt optional email filling and mark is for &quot;Account Recover&quot;.&lt;/p&gt;" style="text;html=1;strokeColor=none;fillColor=none;spacing=5;spacingTop=-20;whiteSpace=wrap;overflow=hidden;rounded=0;" parent="1" vertex="1">
                    <mxGeometry x="80" y="800" width="250" height="200" as="geometry"/>
                </mxCell>
                <mxCell id="_4lO2P2aUbs4R-eT7nXR-47" value="&lt;h1&gt;Bind OAuth&lt;/h1&gt;&lt;p&gt;add oauth profile to current user.&lt;br&gt;&lt;/p&gt;&lt;p&gt;identify duplicate as register,&lt;br&gt;restrict if duplicate, &lt;br&gt;user need to unlink on other acc to bind on new acc&lt;br&gt;&lt;br&gt;if oauth have different email, ask user to choose one as main.&lt;/p&gt;&lt;p&gt;&lt;br&gt;&lt;/p&gt;" style="text;html=1;strokeColor=none;fillColor=none;spacing=5;spacingTop=-20;whiteSpace=wrap;overflow=hidden;rounded=0;" parent="1" vertex="1">
                    <mxGeometry x="80" y="1040" width="250" height="190" as="geometry"/>
                </mxCell>
            </root>
        </mxGraphModel>
    </diagram>
</mxfile>